<svg t="1762877010896" class="icon" viewBox="0 0 1024 1024" version="1.1" xmlns="http://www.w3.org/2000/svg" p-id="9721" width="200" height="200"><path d="M191.985778 19.911111h554.666666c62.577778 0 113.777778 51.2 113.777778 113.777778v612.977778c0 62.577778-51.2 113.777778-113.777778 113.777777h-554.666666c-62.577778 0-113.777778-51.2-113.777778-113.777777V133.688889c0-62.577778 51.2-113.777778 113.777778-113.777778z" fill="#F4F5F7" p-id="9722"></path><path d="M98.119111 24.177778c-39.822222 0-72.533333 32.711111-72.533333 72.533333v674.133333c0 39.822222 32.711111 72.533333 72.533333 72.533334h682.666667c39.822222 0 72.533333-32.711111 72.533333-72.533334V96.711111c0-39.822222-32.711111-72.533333-72.533333-72.533333h-682.666667m0-24.177778h682.666667c54.044444 0 96.711111 42.666667 98.133333 96.711111v674.133333c0 54.044444-44.088889 96.711111-98.133333 96.711112h-682.666667c-54.044444 0-96.711111-42.666667-98.133333-96.711112V96.711111c0-54.044444 44.088889-96.711111 98.133333-96.711111z" fill="#3874F6" p-id="9723"></path><path d="M910.222222 1024H260.266667c-62.577778 0-113.777778-51.2-113.777778-113.777778V270.222222c0-62.577778 51.2-113.777778 113.777778-113.777778H910.222222c62.577778 0 113.777778 51.2 113.777778 113.777778v640c0 62.577778-51.2 113.777778-113.777778 113.777778z m-123.733333-668.444444c-35.555556 0-64 28.444444-64 64v355.555555c0 35.555556 28.444444 64 64 64s64-28.444444 64-64v-355.555555c0-35.555556-28.444444-64-64-64z m-199.111111 128c-35.555556 0-64 28.444444-64 64v227.555555c0 35.555556 28.444444 64 64 64s64-28.444444 64-64v-227.555555c0-35.555556-28.444444-64-64-64z m-184.888889 128c-35.555556 0-64 28.444444-64 64v99.555555c0 35.555556 28.444444 64 64 64s64-28.444444 64-64v-99.555555c0-35.555556-28.444444-64-64-64z" fill="#3874F6" p-id="9724"></path></svg>